<mxfile host="app.diagrams.net" modified="2021-03-23T23:55:38.711Z" agent="5.0 (Windows NT 10.0; Win64; x64) AppleWebKit/537.36 (KHTML, like Gecko) Chrome/89.0.4389.82 Safari/537.36" etag="QsZ7zGw7t81lvskw0zfp" version="14.5.1" type="github">
  <diagram name="Page-1" id="82e54ff1-d628-8f03-85c4-9753963a91cd">
    <mxGraphModel dx="1221" dy="578" grid="1" gridSize="10" guides="1" tooltips="1" connect="1" arrows="1" fold="1" page="1" pageScale="1" pageWidth="1100" pageHeight="850" background="#ffffff" math="0" shadow="0">
      <root>
        <mxCell id="0" />
        <mxCell id="1" parent="0" />
        <mxCell id="4ec97bd9e5d20128-1" value="" style="line;strokeWidth=2;html=1;fillColor=none;fontSize=28;fontColor=#004D99;strokeColor=#004D99;" parent="1" vertex="1">
          <mxGeometry x="40" y="400" width="1710" height="10" as="geometry" />
        </mxCell>
        <mxCell id="4ec97bd9e5d20128-5" value="Stage 1" style="shape=offPageConnector;whiteSpace=wrap;html=1;fillColor=#0075E8;fontSize=15;fontColor=#FFFFFF;size=0.5093750000000015;verticalAlign=top;strokeColor=none;" parent="1" vertex="1">
          <mxGeometry x="120" y="340" width="160" height="40" as="geometry" />
        </mxCell>
        <mxCell id="4ec97bd9e5d20128-6" value="&lt;span&gt;Stage 3&lt;/span&gt;" style="shape=offPageConnector;whiteSpace=wrap;html=1;fillColor=#0075E8;fontSize=15;fontColor=#FFFFFF;size=0.5093750000000015;verticalAlign=top;strokeColor=none;" parent="1" vertex="1">
          <mxGeometry x="573" y="340" width="160" height="40" as="geometry" />
        </mxCell>
        <mxCell id="4ec97bd9e5d20128-7" value="&lt;span&gt;Stage 2&lt;/span&gt;" style="shape=offPageConnector;whiteSpace=wrap;html=1;fillColor=#0075E8;fontSize=15;fontColor=#FFFFFF;size=0.4178571428571445;flipV=1;verticalAlign=bottom;strokeColor=none;spacingBottom=4;" parent="1" vertex="1">
          <mxGeometry x="347" y="425" width="160" height="35" as="geometry" />
        </mxCell>
        <mxCell id="4ec97bd9e5d20128-8" value="&lt;span&gt;Stage 4&lt;/span&gt;" style="shape=offPageConnector;whiteSpace=wrap;html=1;fillColor=#0075E8;fontSize=15;fontColor=#FFFFFF;size=0.4178571428571445;flipV=1;verticalAlign=bottom;strokeColor=none;spacingBottom=4;" parent="1" vertex="1">
          <mxGeometry x="800" y="425" width="160" height="35" as="geometry" />
        </mxCell>
        <mxCell id="4ec97bd9e5d20128-9" value="" style="ellipse;whiteSpace=wrap;html=1;fillColor=#61BAFF;fontSize=28;fontColor=#004D99;strokeWidth=3;strokeColor=#004D99;" parent="1" vertex="1">
          <mxGeometry x="190" y="395" width="20" height="20" as="geometry" />
        </mxCell>
        <mxCell id="4ec97bd9e5d20128-10" value="" style="ellipse;whiteSpace=wrap;html=1;fillColor=#61BAFF;fontSize=28;fontColor=#004D99;strokeWidth=3;strokeColor=#004D99;" parent="1" vertex="1">
          <mxGeometry x="417" y="395" width="20" height="20" as="geometry" />
        </mxCell>
        <mxCell id="4ec97bd9e5d20128-11" value="" style="ellipse;whiteSpace=wrap;html=1;fillColor=#61BAFF;fontSize=28;fontColor=#004D99;strokeWidth=3;strokeColor=#004D99;" parent="1" vertex="1">
          <mxGeometry x="643" y="395" width="20" height="20" as="geometry" />
        </mxCell>
        <mxCell id="4ec97bd9e5d20128-13" value="" style="ellipse;whiteSpace=wrap;html=1;fillColor=#61BAFF;fontSize=28;fontColor=#004D99;strokeWidth=3;strokeColor=#004D99;" parent="1" vertex="1">
          <mxGeometry x="870" y="395" width="20" height="20" as="geometry" />
        </mxCell>
        <mxCell id="4ec97bd9e5d20128-14" value="&lt;h1&gt;Collect images&lt;/h1&gt;&lt;p&gt;Step to obtain right coronary artery angiographies. An existing segments dataset + obtained.&lt;/p&gt;" style="text;html=1;spacing=5;spacingTop=-20;whiteSpace=wrap;overflow=hidden;strokeColor=none;strokeWidth=3;fillColor=#E6E6E6;fontSize=13;fontColor=#000000;align=center;rounded=1;" parent="1" vertex="1">
          <mxGeometry x="100" y="430" width="201" height="120" as="geometry" />
        </mxCell>
        <mxCell id="4ec97bd9e5d20128-16" value="&lt;h1&gt;Filter sillhouete&lt;/h1&gt;&lt;p&gt;Using several techniques, each image have coronary sillhoute extracted.&lt;/p&gt;" style="text;html=1;spacing=5;spacingTop=-20;whiteSpace=wrap;overflow=hidden;strokeColor=none;strokeWidth=3;fillColor=#E6E6E6;fontSize=13;fontColor=#000000;align=center;rounded=1;" parent="1" vertex="1">
          <mxGeometry x="319" y="250" width="215" height="120" as="geometry" />
        </mxCell>
        <mxCell id="4ec97bd9e5d20128-17" value="&lt;h1&gt;Selective Search&lt;/h1&gt;&lt;p&gt;One of the options is to use selective search for more performatic search for objects.&lt;/p&gt;" style="text;html=1;spacing=5;spacingTop=-20;whiteSpace=wrap;overflow=hidden;strokeColor=none;strokeWidth=3;fillColor=#E6E6E6;fontSize=13;fontColor=#000000;align=center;rounded=1;" parent="1" vertex="1">
          <mxGeometry x="545" y="430" width="215" height="120" as="geometry" />
        </mxCell>
        <mxCell id="4ec97bd9e5d20128-18" value="&lt;h1&gt;Each square&lt;/h1&gt;&lt;p&gt;Break the image in each defined square from stage 3.&lt;/p&gt;" style="text;html=1;spacing=5;spacingTop=-20;whiteSpace=wrap;overflow=hidden;strokeColor=none;strokeWidth=3;fillColor=#E6E6E6;fontSize=13;fontColor=#000000;align=center;rounded=1;" parent="1" vertex="1">
          <mxGeometry x="773" y="250" width="215" height="120" as="geometry" />
        </mxCell>
        <mxCell id="ezLJfWQwnkQ7zo3uzc4h-2" value="&lt;h1&gt;Adjust size&lt;/h1&gt;&lt;p&gt;Adjust each square to the correct CNN input.&lt;/p&gt;" style="text;html=1;spacing=5;spacingTop=-20;whiteSpace=wrap;overflow=hidden;strokeColor=none;strokeWidth=3;fillColor=#E6E6E6;fontSize=13;fontColor=#000000;align=center;rounded=1;" vertex="1" parent="1">
          <mxGeometry x="1002.5" y="430" width="215" height="120" as="geometry" />
        </mxCell>
        <mxCell id="ezLJfWQwnkQ7zo3uzc4h-3" value="" style="shape=image;verticalLabelPosition=bottom;labelBackgroundColor=#ffffff;verticalAlign=top;aspect=fixed;imageAspect=0;image=data:image/png,iVBORw0KGgoAAAANSUhEUgAAAOkAAAEuCAYAAABrrTVbAAAABHNCSVQICAgIfAhkiAAAAAlwSFlzAAALEgAACxIB0t1+/AAAADh0RVh0U29mdHdhcmUAbWF0cGxvdGxpYiB2ZXJzaW9uMy4yLjIsIGh0dHA6Ly9tYXRwbG90bGliLm9yZy+WH4yJAAAgAElEQVR4nO3dd3RU1frw8e/0SSaT3kkoSYCQGJqJoFJEihRBBUWKiCBFiqKggopckA5XVASpgvUusCBeEfXyQ+woTUIxGEgCSHqv0+e8f3hn3gSChUsyk8n+rOVyPPWZk3k85+yzz35kkiQhCIL7krs6AEEQ/phIUkFwcyJJBcHNiSQVBDcnklQQ3JxIUkFwc8o/mS+ezwhC45HVN1GcSQXBzYkkFQQ3J5JUENycSFJBcHMiSQXBzYkkFQQ3J5JUENzcnz0nFf7LbrdTWVnp6jCE/1Iqleh0OleH0ShEkv5Fubm5jB8/ns6dO7s6lGbPbrdTVlbGtm3bXB1KoxBJ+hdJkkSPHj1YuHChq0Np9qxWK7NmzXJ1GI1G3JMKgpsTSSoIbk4kqSC4OZGkguDmRJIKgpsTrbv/tWXLFg4ePIhara53vsViobCwkEceeaSRI2t+ysrKeOyxx7jllltcHYpbEEn6X/n5+Tz//PO0adPG1aE0e7t376a8vNzVYbgNcbkrCG5OJKkguDmRpILg5kSSCoKbE0kqCG5OJKkguDmRpE2QJElUVVVht9tdHYrQCESSutCxY8fo06cPR48e/VvrlZWVsXDhQn799dcGikxwJ6Izg4vY7XY++ugjLl26xHvvvUfXrl2x2WyUlJSgUqkoKSkhMjISrVaL1WolJycHs9mMt7c3fn5+DB06lMjISOx2O1VVVeTl5REQEEBgYCByuZyqqiqys7Px8vLCy8sLPz8/ysvLqampQafTodFoyMnJwdvbm8jISORyOcXFxWg0GvLz8wkLC8Nms1FUVESLFi3w8vJCJqt3gHWhgYkkdZG8vDyOHj3K/Pnzeffdd8nPz6e6upoHH3yQkJAQysrKSElJYfHixaxbt47vvvuOoqIiysvL2bJlC6+99hoLFizAZrPx1FNPERgYSHZ2NnPmzKFbt248/vjjABw6dIj+/fszbtw4pk+fTnh4OCNGjOCnn37CarWSlZXFrFmz6N+/P9OnT8doNGI2mwHw8fGhoqKCmJgYXn75Zby8vFx5yJotkaQuIEkSqampqNVqBg0axLvvvstPP/1EQkICcrmcOXPmoFQqWbhwIbm5ufzf//0fc+fOJS8vj48//pjIyEgMBgM2m40333yTHj16MGvWLPbu3cuWLVvQarVUV1ezefNmnnjiCfr06QOAl5cXq1atIjY2lh49emCz2dixYwdfffUV/fr1w2QyMWLECJKTk3nggQeYMWMG0dHRTJ06FYPBIJLURUSSuoAkSezevZuLFy/y9NNPk5OTw6effkq7du3w8/OjXbt2mEwmlEolFosFrVbL6tWrkcvlDB48uE6y5OTk0L17d/R6Pe3ataOiogKtVsv58+eZN28excXFdOzYkZKSElq1akVsbCySJPHyyy+jUCjIyckhNDQUAIVCQWJiIiEhIQQFBZGUlIRSqUSpVCJJonaXq4gkdYHc3FzS09NZsmQJMTExnDt3joULF1JYWOhcxnH/Z7VaqaysJCEhgTZt2tCrV68624qNjWX//v106dKFvXv30q5dO0pKSggJCSE6OpoBAwYQGhpKSUmJc53z589z+vRpVq9eze7duykrK2ucLy5cE9G66wKZmZnceOON9OvXj/j4eHr16kXPnj25ePEicXFxqFQq1Go1cXFxKBQKbDYbGo2GgoICpk2bxqVLl4iLi8Pb25tJkyZhs9mYO3cuFy5c4KmnnkKlUmGxWNDpdOzZs4cFCxag1+uJjY1FoVDQpk0bOnXqxJo1ayguLqZ169YoFApiY2Px8fFBpVLRrl07tFotarWaDh06oFAoXH3Ymi9Jkv7on2Zj8eLFUmZmZqPsy2azSTabrc40q9Uq2e12yWq1SpIkOT9fvHhR6tixo7Rjxw7pk08+kbp16yadOXPGubxj2ZqaGud2161bJ91zzz3St99+K/3jH/+QHnjggTrbdsRQU1Mj2e12ZyyObTqWdXy22WzOfTWGjz76SNq7d+9V51ssFmn69OmNFk8jqjcPxeWuC8jlV17AOM5Ujn/LZDIUCgXh4eEsWLCAH374AY1Gw+LFi4mJialzZpPJZM77VEmSuPfeezEajXzwwQeEh4ezaNGiOtt2xOBYx3FpXXv+5dsXXEckqZtTqVQMHz6c4cOHA3+eMDKZjLCwMGbPnl1nmtB0iSRtAq4lyURieg7RcNSEpKenc/78eSoqKjh8+DA2m+2678NoNHL06FGMRuN137ZwbUSSNiHvvfcee/fu5eLFiyxbtszZM+jPVFRUcPz48b+U1MXFxaxYsYLi4uL/NVzhOhFJ6gYkSaK6upqzZ8+Sn5+PzWbDbDaTnZ1NZmYmBoMBSZIwmUyYzWZsNhvV1dVIkoTVaiUvL4+MjAxqamqQJAmbzUZ+fj7p6elUVVXx448/MmfOHH777TcsFgsGg4HMzExyc3OxWq1IkoTBYCAjI4OioiLxho2bEfekbiA/P5/HH3+ciooKdDod8+bN4+OPP+bo0aMolUr8/f156aWX6l33X//6Fzt37nS2BK9atYoDBw7wz3/+k7CwMKKjoykuLiYtLY2VK1fy6KOPsnbtWsrKyigoKGDChAncfffdPPPMM5w5cwar1Vqn44PgeiJJXUySJH788UdKS0vZvn07kiSRl5fHl19+yaZNm/Dz82PcuHEcP378inUrKyt55513GDFiBDExMTz//PMcPnyYTZs2MW3aNAYPHkx1dTVZWVkUFhayZMkSjh07xunTp3nhhRc4fvw4b731Fi1atCAtLY3t27dz7tw5/vGPf7jgSAhXI5LUDeTm5tKuXTtCQ0NRKBRkZGQQGBhIZGQkXl5etGjRot6zW0VFBSUlJRw9epQLFy5w++23ExQURFlZGUlJSQQEBBAQEEB+fj5KpRJvb28KCwspKyvj888/B2Dw4MFUVFSg1+uJjo5GkiT0en1jHwLhD4gkdQOtWrVi586d/PLLLxQXFyOTycjOzubw4cP4+flx7tw5YmNjSU1NrbNeYGAg4eHhJCcnM3DgQIqLi4mKiiIiIoKvvvoKlUpFTk4Oer2ewsJCMjMziYiIwNfXl5EjR+Ln54fZbKampoaioiJ+/PFHTp8+TUFBgYuOhFAfxZ8Uxf3DmZ7km2++oWPHjgQEBDT6vkNDQ7l48SI7d+7kwoULDBw4kNDQUHbs2MHBgwcZOXIk/fr1IyMjg6CgIFq1akVGRgZDhgwhKiqKDz74gC+++ILffvuNW2+9lfbt27Nz5072799PcHAwycnJHD9+nCNHjjB48GBkMpnzFTWdTkfv3r2prKzk3XffxWw2ExgYyIABA/Dx8Wn0YwFw5swZlEolbdu2rXe+3W7n888/Z8iQIY0cWYNbVN9EmfTHryA1m/eTlixZwtixY11WZsLRwqrRaFAoFM6WW0mSUKlUyGQyZ4urTCZDkiRkMhkymQybzYbRaMTLy8vZ5dBqtTpfc3MsY7FY0Gg0AJjNZiRJQqPROLdnNptRq9XY7XbkcrnLOkTs3r0bjUbDoEGD6p3vqPS9fv36Ro6swdV7wMXlrpuQyWR4e3vX+W+VSlVnmdp9fmsnkEKhQKfT1VnW8R5o7WVq98d1JGvt7TmmiTde3ItIUsEtrVu3jo8//viq8/38/BoxGtcSSSq4pZkzZ171cre5ET2OBMHNiSQVBDcnklQQ3JxIUkFwc6LhyEPUft4tXvj2LCJJ/0utVrNixYom22/VZrNRVVUF/D4ItlqtdnFE1+78+fNMnTrV1WG4DdHj6L+MRiMmk8nVYVyzM2fOMGLECAoKCnj55ZcZO3asq0P6n3h7e1/RmaMZED2O/ohWq0Wr1bo6jGvmiF0mk+Hr69usHvZ7OtFw5CFsNht2u73e7oRC0yaS1EM4OuMDIkk9jEhSD2G1WsWZ1EOJJPUQjiQFcSb1NCJJPYS4J/VcIkk9RO3L3ab8jFS4kngE04Q5qm4BWCwWcbnroUSSNnE//PADP/zwA2lpac7SEJ9++inp6el069aNdu3aiW6CTZzocdSESZLEN998w1133UV5eXmdeS1btuSDDz4gOTlZJGnTUe8fStyTNmEymYyuXbvSv3//K+YNHTqUrl27igT1ACJJmzgfHx8mTZrkLAgMEB0dzdSpU+stViw0PeKv2MTJZDJuvfVWevfuDfw+0t8DDzxAfHy8OIt6CJGkHkCn0zFx4kR8fHyIjo5m8uTJooXXg4jWXQ8gk8m44447uOmmm+jXrx/R0dGuDkm4jjy+dTc7O5uZM2cSFhbm6lAa3MWLF/Hz82sWr6mVl5czffp0evbs6epQrqfm+T6pyWQiJSWFZ5991tWhCNfRnj17KCsrc3UYjULckwqCmxNJKghuTiSpILg5kaQeSJIkqqqqqK9RsKamBovF4oKohGslktSFLly4wJ133sn999/PpEmT+Ne//kVNTc3/vN2LFy+yYMEC8vPzr5i3ZMkSfvjhh/95H0Lj8fjWXXdWXl5OSUkJc+bMoaysjBdffJGqqiomT56MxWIhLy8PgPDwcJRKJUVFRWi1WgoKCggNDUWv1zvPmnl5eQQEBBAYGEhwcDDDhg3D398fo9HIpUuX0Gg0REZGMnToUFq1akVNTQ0GgwGz2YzFYiEiIgKlUonBYCA7OxulUom3tzdBQUF16pwKjU8cfRfT6XQkJSURFBSExWJh27ZtjBo1itWrV/PLL79QWVnJ7bffzvjx45k2bRp2u91Zsfvtt98mKyuLp556isDAQLKzs5kzZw4dO3Zk3bp1xMXFsWHDBs6dO4eXlxcrVqxg+/bt3HPPPVitVlauXElQUBD5+fnMnDmTESNGMHPmTKqqqjh9+jSJiYmsX7+ekJAQVx+mZk1c7roJmUxGy5Ytsdvt/PLLL3z++ec8+OCDTJgwgQ8++ICCggJMJhOjRo1i7dq1VFZWcuHCBd5880169OjBpk2bmD59Olu2bMFgMGAwGLBYLJw6dYpevXrx/PPPExQUhMFgwGq1YrFY8Pb2Zt26dUyaNIn/+7//o7CwkMzMTBYtWsQdd9xBly5dCAoKcvWhafZEkroJSZLIzs5GpVJhMpkoLy/nq6++4sSJEwwbNsw5ontSUhKhoaH4+/tTXV1NTk4O8fHx6PV62rVrR0VFhXOEBo1Gw9y5c/nuu++YPXs22dnZdfbZokULoqKiiIiIwGKxoNVqycvLY+HChZw4cYKePXuKN2ncgLjcdTGDwcCZM2eorKzktddeY9SoUbRp0wZ/f38GDhxI+/btKS8vx8fHp856jjdcYmNj2b9/P126dGHv3r20a9fOeQ9ps9mQy+UsWLCAp59+mtTU1HpjcGwrLy8Pf39/WrduzYABA2jTpk0DfnPhrxJJ6kJ+fn5otVpeeuklAgMDmTBhAsOHD0elUjFjxgy2bt2KXC7npptuYuzYscTFxeHt7Y1CoSAmJsb5LunSpUuZO3cugYGBPPXUU/j4+BAXF4dcLue9997jt99+IzIykptvvpmjR4/i7++P1Wp1JqGfnx8xMTHY7XbsdjtarZaffvqJr776irVr1xIQEODiI9W8eXwH+8zMTHbs2NHk+u5KkuS8d/Ty8kImkznPjJd/liQJo9GIRqNxXp465tvtdoxGI15eXs7/dpw5JUmq8/nDDz9k69atPP3006Snp/PFF1/w+uuvu+V96Z49e5AkiaFDh7o6lOupeXawb6oc4+fWfi9UoVDU+1kmk9UZmaH2fIVCgU6nc06vfY9Z+6VwmUzGwIEDycvLY8+ePQQEBLBkyRICAwOv35cSrolIUsFJr9fz6KOPOnsqiZEd3INIUuEKIjndS7NI0iNHjrBlyxZXhyFcRydOnGDAgAGuDqNReHzDkclk4uTJk64Oo8F9+OGHrFixAh8fHz755JMrHtl4ori4OPz9/V0dxvXUPBuONBoNycnJrg6jwR05cgT4vaGoS5cuzWIIleZCdCcRBDcnklQQ3JxIUkFwcyJJBcHNeXzDkSeTJIm0tDQKCgpIT08Hfi8m/P3336PX60lISHDLLn3C3+Pxj2A8mSRJrFmzhqeeeuqK8YzatGnDp59+SocOHVwUnXANROlDT3Tvvfdyww03XDF91KhRtG/f3gURCdebSNImTCaTERUVxYMPPlhnHKI2bdrwwAMPiBe2PYT4KzZxCoWCMWPGEBsb6/zvUaNG0bZtWxdHJlwvIkk9QFhYGFOmTEGlUhEREcHDDz8sSh96EJGkHkChUHDfffeRmJjIgw8+SKtWrVwdknAdeXzrrt1up7Ky0tVhNIpdu3aRkJBAfHy8q0NpFI7B2TxIva27Hp+k58+fZ/LkyXTq1MnVoTQ4m82GTCZrFg1GFy9eZOLEiQwcONDVoVxPzfMtGLvdTp8+fZrcGEfCH9uzZ0+zqWnj+f/LFYQmTiSpILg5kaSC4OY8/p7UndhsNgwGg7MMhFarRaVSXZeBv6xWK3l5eURERDiH8zSbzRiNRucyPj4+FBQU4OPjQ25uLhkZGdxxxx3O8XfFAGTuSZxJG1FmZiZ33HEHo0ePZuzYsfznP/+5btu+ePEiy5cvp7Cw0Dlt586d3HbbbYwdO5aHH36YwsJCVq9ezaFDhzh9+jQffPABFouF9957r9k8pmqKxJm0EZnNZqxWK+vWrUOr1aLX60lLS8NkMpGTk8ONN97I2bNnKSgoIDExkbZt21JRUcH58+cxGo1UVVWRkpKCn58fOTk5HD9+HLlcjo+PD4mJic6apA7l5eXceOONvPDCC8hkMmfd0piYGA4fPozZbObYsWMsWbIEuVzO7bffjlwuJzU1FavVSufOnQkICODUqVPY7XaKi4vp3bs3arXahUex+RFJ6kI2m401a9Zw7NgxbrnlFoqLizly5Ag6nY41a9awY8cOzp49y6RJk+jRowc5OTncdtttTJkyhSeffJIWLVrw7bffEhYWxpIlS1i7di2dOnUiPDy8zn4kSUKhUCCTydi6dSsjR44Efr9EPnnyJGVlZRw8eJD27duzadMmrFYrBoOBDz74gOeff5758+dTVlZGz549uemmm0SSNjKRpI2stLSU2bNno1armT59OgAPPfQQjzzyCBaLhXbt2nH+/Hn27NlDWVkZAB06dGD16tUcP36c119/ndzcXLKzs1m2bBl6vb7eMhMO3377LY8++igBAQGsXbu2zjyNRsPIkSN54403mDlzJna7ne+++46HH34YpVLJhg0byMnJQalU8vjjj3PXXXeJqt8uII54IwsMDGTDhg1otVqUSiVvv/02LVu2RKlUsmPHDj755BNuvvlmbDab80VuPz8/dDodfn5+zl5FVquVxx9/HJVKxbx5867ay6hPnz4sW7YMuVxebyI71pPL5dTU1DgLQOl0OubPn094eDhyuZzo6GhP64LXZIiGo0Yml8vx8/PD39+/zo/eZrNx6tQpIiIiiIuLw2AwXLGuo/XVUcU7PDycrl27IpfLrxiZwbG8RqMhICAAPz+/K1pvHS26BoOB77//HrVaTWBgIN7e3nTs2JHAwECRmG5AJGkjCggIYOjQoc5HJHK5nJ49e9K6dWuUSiXjx49HJpPx7bffMm7cOAICAoiMjOS2225DpVIRGhpK3759sVqteHt7c9tttyFJEtOnT0epVNK/f3+8vb2d+0tISKB79+51YujduzctW7akdevW9OzZE61Wy4wZMzh06BAWi4Xly5dz5swZNm3axKVLl9BoNPTt25fQ0NBGPVbC/+fxHezdqT6pJElXPJOsXcFMkqR6O8lLkuQ8W0qSxKFDh5g1axYPPvggeXl5pKWl8fbbb9epT3r5ti+fdjmr1YpSqXTWPrXZbM5nuI6apu70HFXUJxUaRH0/9MtrhNbXMONYxrF+ly5dWLVqFWfPniUpKYmpU6ei1Wr/cNt/NA24og5q7fqnzeGtGncmkrQJ0mg09OrVi169egGiVKGnE0naRInEbD48PknlcjkHDhygpKTE1aE0KLPZjMFgQCaTOZ+dejLHS9/Ngcc3HDWX4VO2bdvG7Nmz8fX15fTp0+j1eleH1OCay/ApzeJM2hxqdTo6KjjOpM3hOzcXotlOENycSFJBcHMiSQXBzXn8PaknkyQJo9GI1WrFZDI5p1VXV6NQKJyd+IWmzeNbdz2ZJEksX76cbdu2UVFRQWFhIXK5nFatWhESEsJrr73GjTfe6Oowhb9OlD70RAMGDKCqqso5bIrdbicrK4tWrVrVWxJRaHpEkjZhMpmMG264gXvuuadO5wW9Xs+0adPECAoeQiRpE6fRaJg6dSqBgYHA74k7ZMgQUlJSPL7XUXMhkrSJk8lkJCQkMHLkSGdHhqlTp6LT6VwdmnCdiCT1ACqVigkTJhAZGcnAgQPp3r27OIt6ENE+7wFkMhldu3bloYceok+fPmg0GleHJFxHHv8IJjs7m5kzZxIWFubqUBpcZWUlGo2mWTQYlZeXM336dHr27OnqUK6n5tnB3mQykZKS4hbDpwjXT+0hTz2duCcVBDcnklQQ3JxIUkFwcyJJPUB6ejpZWVmuDkNoICJJm5BLly4xbNgwRo0axcSJE/nhhx+w2+28//777N2719XhCQ1EJGkTUlFRQUlJCdOmTSMuLo4XX3yRqqoqTCYTJpMJs9lMYWEhdrsdi8VCQUGBs2RhUVER586dw2KxuPprCH+TSNImRqFQoNPp0Gg06HS6OgNX//rrr0yaNAmj0UhGRgYTJ07EYDAwZ84chgwZwpIlS8jPz3dh9MK18PjnpJ4mKyuLF154gZycHLp06VKnbITdbncWerLb7dTU1CBJElVVVQwbNoxHHnlEDFDWBIkkbWLat2/Pxo0bKS8v57777uPs2bN15tvtdiRJwm63O6dptVo6depEUFBQY4crXAciSZsYo9HIhQsXqKqqAqgzPIpGo6GiooKTJ0/yzTffNIvxhpsDkaRNiK+vL15eXqxevRqNRsOTTz5Ju3btaNGiBXq9nujoaO68806WLVtGVFQUN910EwqFgpiYGHGZ24R5fAd7dyp92FAcl7aO8ogmk8nZyd5RUtHdShf+r0TpQ6FJqd3CK5PJ0Gq1deZ7UnI2R+IRjCC4OZGkguDmmsXl7pEjR9iyZYurwxCuoxMnTjBgwABXh9EoPL7hyGQycfLkSVeH0eA+/PBDVqxYgY+PD5988gk+Pj6uDqnBxcXF4e/v7+owrqfm2XCk0WhITk52dRgN7siRI8Dv3Qa7dOkiHrl4EHFPKghuTiSpILg5kaSC4OZEkgqCm/P4hiNPJkkSFy9epKKigpycHABsNhtpaWnOvry+vr4ujlL4X3n8IxhPJkkSq1evZtmyZZhMJoxGI/B7R/yoqCh27NhBUlKSi6MU/gZRn9QT3X333QQHBzsTFH4fZqV3794kJCS4MDLhehFJ2oTJZDJiYmIYM2YMCoXCOT08PJxJkybV6XgvNF3ir9jEKZVKJkyYQIsWLYDf34gZMWIEiYmJ4u0XDyGS1ANER0czYcIEFAoFQUFBTJ06tVkUbWouRJJ6AIVCwZgxY4iLi+P++++nffv24izqQUTrroeQJInNmzeTnJxM165dRZI2TfX+0Tw+SSsqKnjvvff4k+/pEaxWK3K5vNk0GN1xxx20bNnS1WFcT83zLZiioiJ+/vlnJkyY4OpQhOvou+++IzU11dOStF4en6QALVq0aBavqzUneXl5zeLqCETDkSC4PZGkguDmRJI2EkmSsFgsVFRUUFFRQU1NjbMkRG5uLtXV1de87eLiYkpKSv5yHI7LRLPZzKVLl+qUpBDcj0jSRvT555/Tq1cvxo4dy/333+8c8mTp0qWkpqZe83bfeustPv7447+07I8//sixY8eQJInffvuNZ555xlnkSXBPzaLhyF1UVlbSsWNHli5dyssvv8xHH31E165dGT58OK1btyY3N5fCwkLKy8ux2WwkJyfj5eXFr7/+Snp6Ov7+/qSkpGC320lPT6e8vJygoCB69+6NRqOhoKCAU6dOARAUFERkZCSpqalUV1fTuXNnvL292bp1K1qtFqVSSVRUFGPHjkWtVlNTU8OpU6fIz88nLi6Otm3bkpmZic1m4+LFiwQHB5OUlCR6MrmASNJGVlFRQXp6OpmZmfTr1w+ZTMaGDRuYOnUq+fn5LF++nJtuuon09HTGjRvH2LFjWbt2LeHh4Xz77beMHTuWG2+8kVGjRhEfH8+IESPIzMzE39+f/v3789lnn/H999/TunVr+vXrxy+//ILBYGDLli0sWrSI8+fPI5PJOH78OACrVq3illtuYcuWLezfv5+EhARWrVrFkiVL+Pe//80333xDSkoKBw8eZMOGDXTr1k10lGhk4nK3kZ09e5adO3dSVFTEb7/9Vud+UJIkOnXqxLp165g0aRJHjx7F29ubOXPm0K1bN2JjYzlx4gQA/v7+bNq0iQceeMC5fmJiItOmTUOtVjNjxgyGDx/O0KFD6dixI1lZWcTGxtKjRw8GDx7sPIMClJaWsm/fPubPn8/y5cvp06cPn3/+OVarlZEjR/Liiy/Sq1cv51laaFwiSRvZrbfeytq1a1myZAmfffYZNTU1deb7+/vj7e2Nj48PNpuN3NxcZs2axeHDhzEajdhsNgACAgLw9/evU/rQZDKxfv16+vXrR+fOnVm3bh1vvPEGRUVFzvUcvZFq90oyGo3Y7Xb8/PxQqVT4+flhsVgACAkJQa1W4+fnh9lsbtBjI9RPJGkjkslk5OTkcODAAfbt2+dMgKstC78/tC8uLiY5OblOy2x9Dh48yN69e4mPj+fIkSOcPHmSDh06EB4ejslkAn4fteHIkSOkpqY6Ezc4OJigoCDefvtt9u3bx/79+0lJSanzjqrgOoqFCxf+0fw/nNkUlJaWcurUKXr27OnqULBarWRkZJCVlYWfnx9PPvkk4eHhlJSUcMMNN6DT6fDx8aFjx44YDAa0Wi19+ohZ17gAAB0sSURBVPShurqan376ibi4OJKSkoiPj8disdC9e3cUCgUVFRVERUWh1WopLy8nOzubiooKhg4dyvfff4/JZKJLly707t2bFi1akJqaisViITExEYvFQo8ePejatSs///wzx48fZ/Dgwdxzzz3U1NTQpk0boqOjqaioIDo6mtatW7vFPWl6ejrwe+VzD7Kovoke38He3euT1nf8HTVFHZ/tdjs2m63OpW3tmqO1l7182zabDblcXmeezWZDJpM565k6tmO327Hb7SgUiiu2e7V9uIqoTyo0mqv96GtPr+/Nltrz/2gbtRPbofa0P9rPX9mH0PDEPakguDmRpILg5prF5a7JZKK8vNzVYTQKq9Va7yWup6mpqcHLy8vVYTQKj/9r6vV6SktLWbx4satDaVBnzpzhu+++Q6lUMmrUKLRaratDalAWi4WJEye6OoxG4fGtu83F9u3bmTx5Mjqdjl9//ZXw8HBXhyT8fWIEe0+mUqmcj1REzyDPIpLUQyiVSmeSOnoXCZ5BJKmHUKlUzm584kzqWUSSeghxueu5PL5115NJksS5c+c4e/Yshw4dwmq1Yrfb2bVrF6mpqSQnJ4uaMB5AtO42YZIk8dVXXzF27FhKSkqc96IymYywsDB27txJz549RZI2HaJ119PIZDJuvPFGbrnlljqNRZIk0aNHD7p37y4S1AOIJG3i9Ho9s2bNwtfX1znN29ubKVOmoFKpXBiZcL2IJG3iZDIZKSkpjBgxwnnWvP3220lJSRFnUQ8hktQDaDQaHnnkESIiItBqtYwfPx5/f39XhyVcJyJJPYDj3vS+++7jxhtvZMCAAa4OSbiOPP4RjMlk4uTJk64Oo1GkpKQQEhLCmTNnmkX5Q7VaTVJSksdf1nv8I5jMzEyefPJJBg0a5OpQhOvs3//+Nx999JEnvZrXfIdPSU5OZvLkya4OQ7jOHAN8ezrPvyYShCZOJKkguDmRpH/AMcSlO5EkiZqaGucI8w75+fmcPn36mrdrsVgwGAxIkkRJSQmfffaZs47MtXTYlySJqqqqZlONuyGJJK1HZWUlr776KiNHjuS+++7jrbfeco72/mccP/JTp041WIIvWrSIQ4cO1Zn2448/snHjxr+1naysLC5cuIAkSXzyySds2rQJq9XKmjVrePPNN0lLS2PZsmV8++23f2l7VVVVHDt2DLvdTk5ODgsWLCA7O/tvxSRcqVk0HP0dNpuNN998k08//ZS5c+eiVCo5d+4cVqsVo9FIbm4uOp2OkJAQZDIZxcXFaLVaCgoKCAsLw8vLiy+//JK33nqLDRs2EBYWhsViITc3F7VaTWhoKCqViuLiYvR6PWq1mpKSEnQ6HTabDYPB4CxpaLPZKCgoICoqCh8fH+ejhrvuuouYmBgkSaK8vJzi4mJnYWLHmTY3NxdfX1+CgoKw2+2UlZUBvydSZGQkkiSxYcMGtFotjz32GJ06daJNmzbU1NRw7Ngxxo0bx6BBg2jRogVRUVHYbDaKi4spLS0lOjoarVZLWVkZubm5BAUFERISws8//8xzzz3HG2+8QVBQEEOHDnXuv7y8nIKCAkJDQ/Hz88Nms1FaWopcLqeiooIWLVqg0Whc+ad3WyJJL1NZWclHH33E7Nmzue222wC45ZZbyM7O5tFHH0WtVlNQUMC4ceMYPHgwkyZNQqVSYTQa8ff3Z+XKlezYsYPU1FRWrlzJ9OnTWblyJeXl5VRWVnLrrbcyf/58Hn30UaZPn06PHj2YM2cO48aNo6ioiBdffJHg4GD69u3LgQMHCAsLIykpiRkzZjj74m7dupUxY8ZQWlrKY489hk6nIzMzk44dO1JYWMjjjz+OzWYjLy+PuXPn0qZNGyZOnEhwcDCVlZX07t2bwYMHc+DAAWw2G3q9noCAADIzM0lKSuLEiRNs376dli1b8s477zBo0CAUCgXLli0jLCyM+Ph4Jk+ezDPPPINGo+H8+fMsWbKE9957j7Nnz/L8888zZcoU1q9fT9u2bcnIyGDx4sWEhISQk5PD0qVL8fX1ZdKkSURERFBcXMyQIUN4+umnRf2ZeojL3cuYzWby8vKIi4tzll9QKBR8+OGHREZGsmnTJhYvXsz27dspLi7GYrEwfvx4XnrpJQoLCzGbzUyYMIGUlBQWL17MyZMnKS8vZ9OmTSxZsoT//Oc/5OXlYTAYnJfQBoMBq9WKxWLB39+fjRs3kpCQgNFoZMqUKYwZM6bOs0DHfeKePXtISEhg69atjBo1CrlczmeffUZVVRUzZ86kW7duvP/++xgMBgwGA8uWLeOFF17g66+/pn379gwcOJD77ruPGTNmIJfLMZvNDBs2jM6dOzNr1iy6deuG0WikpqaGLVu2MHHiRF5//XWmTZtGWFgYzz77LLNnz6Zly5YcP36c8ePHk5CQwCuvvELr1q2pqanBbDazceNGRo8ezebNmxk2bBhvvPEGVqsVtVrNggULWLBgAT/++CMVFRWu+rO7NZGkl1Eqlfj5+XHp0iVnFTO73c6lS5eIi4sjICCAuLg4TCYTFosFjUbDDTfcQFhYGL6+vhgMBjQaDUqlEm9vb3Jzc4mJiSEwMJDo6Gh8fHycP0bH9ms3rrRt25aWLVvSq1cvhg4dyrPPPsubb755xbhFdrudgoIC2rZtS1BQEG3btkWpVJKdnU1hYSGfffYZkiTRs2dP5HI5QUFBtGnThrCwMGcdGLVajVqtrjP8p1qtRqlU4uXl5fwfg91up7i4mKSkJPz9/YmKiqKgoIClS5eybds2srKynMdCoVCg0+mcPZ4kSaKwsJD4+Hh8fHxo164dpaWlwO9lFWNiYmjZsiV2u/2KxjDhd+Jy9zJ6vZ5+/frxyiuv4OXlhUKh4Ny5c7Rs2ZKvv/6aQYMGcfDgQSIjI/Hx8XGuV7trmlKpJC8vj6ysLKKjo9m1axe//PILaWlpmEwmIiMj8fLy4vjx49jtds6ePXtFHEVFRfTr14+4uDjWrFnDQw89VCeZ5HI50dHRfP/999x+++3s27cPs9lM+/bt+fbbbxkzZgwajQa73Y7Vaq33u2o0GjIyMsjOzv7DRi6FQkFUVBRfffUVer2eS5cuUVZWRllZGfPmzSMvL8/5vU0mEydOnCAgIKBOnPv27SM8PJwvvviCxMTEv/dHaebEmfQyKpWKxx57jI4dO7J8+XJWrVqF0Wjk/vvvp2XLlsyfP58DBw6wYMECgoKCiIuLc551YmNj0el0xMbGEhERwcsvv0znzp3p06cPCxYsYPfu3Tz77LP4+voyfvx4vvzyS959912Sk5OdjTytWrUCICcnh2XLlrF9+3YeeOCBOm+1xMTEEBAQwIgRI/D29mbhwoWo1Wri4+Pp378/ycnJLFy4kAULFpCWloaXlxft27dHoVCg1Wqdn/v06UNWVhbvvPMO/v7+REdHI5PJiIuLc76f2rp1a0JCQnjiiSc4cuQIzz33HGfPnqVr164EBgayYsUK1Go1YWFhtGzZkq5du7JixQqKi4tp27Yt3t7ezJ49m8zMTOc955QpU/Dx8SE2NtZ51o6LixPvv15Fs+i7e62lD81mMzKZzPnjcQyXWXtkvtqlBWt/tlqt2Gw2Z5Hgy9dzbN9RZrB2ecHaA4pJkoRGo3GeqR2Xx451bDYbNpsNlUqFJEnOy0yj0YhMJnPu326317kEdWzPYrE4q6851q/9Pex2e519mc1mtFqt8ztarVY0Go1zXbvdjtlsdp7Fa2/HMd3xXR1lFmt//jtmzJjBK6+8IvruNmeXV+GWyWRXlG+o/cOq/VmpVNb58dRX9qG+7df+XN8jCUfC1N6nY7+1p/9RnLWXqx2DY3rtZWu/TaNQKOrUX6n9HR3ryuVy574v307tmBwNcpd/Fq4kLncFwc2JJBUENyeSVBDcnMffk2o0Gg4fPswjjzzi6lAaXFpaGtXV1YSEhDhbiT1ZVVWVq0NoFB7futtcSJJEcnIyx44dY/LkyWzevNnVIQl/nxgcWxCaIpGkguDmRJIKgpsTSSoIbk40HDVxOTk5PP/88+Tl5fHdd99RUVFBdHQ0SUlJ3HDDDbzwwgviZeqmQ3QL9ESBgYGo1Wrnq2kAv/32GwUFBQwZMkR0WvcA4nK3idNoNEydOpXAwMA60xMTExk+fLjHj+7eHIgkbeJkMhkJCQmMHDmyTgf5SZMmOV/wFpo2kaQeQKVSMWHCBCIiIgDo0qULw4YNc3FUwvUiktQDyGQyunbtyrBhw1CpVEycOJGIiAhxFvUQouHIQ8jlciZNmsT58+e59957m0VVtebC4x/BFBYWsnjx4itesPZEJpOJvLw8oqOjm0WSarVaFi1a5EkvjDfPRzCVlZUEBAQwe/ZsV4ciXGdPP/10syhj4fFJCr8/pvDz83N1GMJ15kFjG/0hz78mEoQmTiSpILg5kaT1sFqtnD59mp9//pnTp09TWVn5l9f9+uuveffddxswuj+WkZHBa6+9hsFg+FvrSZKExWK55ns8SZKwWq1IkoTNZuP77793FokS/jciSetRWlrKuHHjWLFiBY8//jhLlizBaDQ6x4e12WzOH7NjHFzHtIyMDA4fPuxctnapCpvNVmda7fVqf3Zs9/L1a6/n+G8Hx/p5eXkcOHDgipINl+/r8m2Xl5ezcuVKSkpK6sx3rHP59758m2azmWXLlpGXl4fNZuP999+nsLDwiuUu/26Xb1O4UvO48/6bbDYbgYGBLFy4kPLycubPn09RURF2u51PPvmEwsJCevToQe/evamqqmL37t3k5ORw2223OX9wlZWVvP/++wwePBir1cquXbuoqqrC19eXgQMHcubMGcrKyigpKeH+++/n0KFDnDhxgpYtWzJ06FAkSeLAgQMMGTIEs9nMvn376N+/Pz/99BNWq5UTJ07Qpk0bhg4dikqlYt++fRw/ftz5w6/NaDTyn//8hxMnTpCQkECfPn3YtWsXd955J1arlYMHD1JZWcn27duxWCwMHz6czMxMzGYzBQUF9OrViwMHDlBRUcHtt9/OzTffjMVi4fPPP+fkyZN06NABgDfeeAObzcbo0aPp1q0ber0ek8nEZ599xqlTp4iOjuauu+5CLpfz+eefY7FYyM7O5o477iApKalZPDa6FuKoXEV5eTm7d+9m48aNBAcHExAQQHp6OkqlkjZt2vDcc8+Rm5vLq6++ykcffURwcDCHDh3CZrNRVVXF8uXLOXr0KEqlkjVr1lBUVER1dTVvv/02arWa9evX8+abb+Lv78+uXbvYuHEjsbGx7Nmzh/Xr15OTk8P27dupqqqiqKiIbdu2UVJSwq5du1i5ciU6nY5Vq1Zx7Ngxjh49ytKlS/Hy8uKHH3644iz66aefsn37dmJjY9m0aRNffPEFhw4dYs2aNaxatYqMjAyCg4PRaDSEhoYik8nYunUrb7/9Nnq9ntOnT+Pr60tISAjz5s2jsrKSvXv38s9//pOQkBBSU1OdxZ+Cg4NRqVS88cYb5OTksHPnTrZt20bLli3Zs2cPr776KsXFxTz33HP89NNPVFRUMH/+/GYzqNi1EGfSq3BcwoWHh/P999+TmZlJSkoKpaWlnD17lqKiIgoKCjh8+DAzZsxg4MCBALz++uvs27ePuLg4duzYgV6vJz8/n8TERPR6Pb/++ivh4eFoNBqmT5/O0KFDGTt2LOPGjWPUqFFERkbywgsvcOedd141tgkTJjB69GjS0tLIysqioKCA7t2789hjj5GUlMSGDRvqLP/pp59itVpJT0/HYrFw9uxZZs6cyb333ktYWBjz58/HarUSGhrK3XffjU6nQ6VSMXPmTPr27UtJSQlffPEFFy5cIDc3F4vFwr59+xgxYgRTpkxBLpdjMBgICQlh4MCBREVFAb+fwffv38/o0aMZPXo0ERERrFu3jrvuuougoCCee+45TCYTo0aNwmg0OuvPCHWJJL2KgIAAxo4dS8uWLbnrrrs4deoUH330ERcuXGDQoEHodDpnJTJH6QXHGSwhIYGqqip++ukn5yXwnj17CAgIYNasWahUKlQqFTqdDqBORTNHXReFQoHNZsNisTjrlzp4e3s7S144asHUvserT4cOHejbty99+/aldevWZGdno1arMZlMVFdXO0tAONaXyWT4+flhNptZunQpVquV7t274+3tDVCnRo2jwai+++Ta02w2m7MshlqtRqFQIJfLPanHUIMQSVoPmUxGaWkpb731FpIkYTQaiY2N5cSJE1gsFjIyMigqKsLPz48uXbqwdu1ajhw5gsFgIDQ0lHbt2tG/f39WrFhBaGgoNTU1mEwmFAoFP//8M126dKmzvwEDBrBt2zbKy8v54osvGDZsGFFRUUiSxEsvvUReXh4lJSVXjfeWW27hqaee4p///CcHDx68oozhoEGD2Lx5MzfccANVVVXYbDY2btzI9OnTyczMZN26dTz55JP4+fmxdu1aRo4c6VzXbrc7W4rT09OdtUVvv/121q9fj8Vi4dKlS8yZMwe5XM4777zjXN/Ly4vbbruNt956i5KSEvbv30+/fv2c/3OqfbyFq1MsXLjwj+b/4cymoLS0lFOnTtGzZ8+/vI5KpSIwMBCtVktoaCgTJ06kc+fOxMfHYzKZ8PX15a677qJTp050797dWSW7X79+xMbGEhsbS69evYiMjMRqtfL1118zY8YMEhIS2Lx5Mx06dKBz584kJCTg6+tL+/btCQsLo6CggH79+nHPPfeg1+tJTEykvLycPn360KNHDxITEwkODiY+Pp7AwEDnuklJSbRq1YrKykqGDRtG165dadu2rfMMFRsbS2RkJBcuXMDHx4cOHToQHBzMPffcQ3JyMnK5nPj4eDp06EBFRQUdOnSgbdu2JCQk4Ofn55weERHBnXfeyQ033OCMubi4mFtvvZWEhATi4+OpqqqiQ4cOxMbGkpiYSHJyMoGBgRQXF9O3b19GjBiBVqslIiKChIQE1Go14eHhJCQk/O1RJPbu3cugQYM8qcFpUX0TPb6D/f9S+vBy9R0rRxm/2uUEa0/Pz89n1qxZqNVqfHx8yM/P59VXXyUyMtK5nGPbtUsaXj6t9jav9vnyZS+P/fIYr/Yd6/sefzb97y5Xn797RhWlD4UrXO1HdHk5wtrTw8LCeOWVV8jOzkYulxMREVHviAn1beNq0672+Y9+5H82v75t/tm6l0//O8sJf51I0gYmk8kIDw8nPDzc1aEITZTHXMwLgqdqFmfS7Oxsjhw54uowhOusvLzc1SE0Co9P0uDgYLp06cLPP//s6lAa3JIlS7h48SI9e/Zk3Lhxrg6nwQ0ZMsSTWnavyuNbd5sLUfrQI4jSh4LQFIkkFQQ3J5JUENycxzcceTqj0UhWVhZWq9XZx7akpISTJ0+i1WqJjY1tFo0rnkw0HDVxubm5jB07lmPHjlFZWYndbkelUuHt7c2IESN47bXXROnDpkM0HHmisLAwhg8fTnV1tfPtF4vFgkKhYPTo0c1iUHBPJ5K0iZPL5YwcOdI5hIlD37596dmzp+gn6wFEknqAoKAgpkyZ4jxr6vV6pk2bJs6iHkIkqQeQy+Xce++9JCYmIpPJGDJkCCkpKeIs6iFEknoAxytxDz/8MAEBAUydOvWK0Q+EpsvjH8HY7fa/Nbh1U9anTx+mTJlCQkICFRUVrg6nwcnlcnx8fDz+isHjH8GcP3+eyZMn06lTJ1eH0uAco8grlUqP/+EC/PLLL/z73/8WIzM0dXa7nT59+lyX4VME9zJjxgxXh9AoxD2pILg5kaSC4OZEkjYgu93u7AXkGOjaZrPx22+/YbFYKCwspKysDKPRSHZ29hXj5TZUTPn5+aSnp2MwGDCbzc6xc61WK4WFhVRUVGC32zGbzaKYkhsQSdoA7HY7X375JU888QRz587l5MmTHDhwgNdff52Kigoef/xx8vPz2bp1K7t37yY9PZ158+ZdUcPl7+yvoKDgqqPX11ZQUMDMmTNZvHgxhw4d4h//+Afnz5/nmWeeoaCggNdee419+/aRlpbGK6+8QnV19TXFJFw/Ht9w5Arnz59n4cKFTJkyBbvdTmlpKREREWg0mjoJVV5ejl6vx2KxUFRUhMlkwmw213msYDabqa6uxs/PD5lMhtlsRqlUOgfkVigUlJSUMHr0aDZv3kzr1q1RKBRUV1cjSRI6na7OOL6XLl2isLCQd999F7Va7RwZv7i4GKvVSnl5OdXV1QQFBZGYmIhKpcJoNKJSqaiqqkKn0zlbU41GIzU1NWi1WtRqtSe1sroVcVQbgNVqxWg0EhwcTO/evdFqtXzyySekpaWRkJBQ7zrZ2dlMmzaN0tJSxowZw5gxYzhw4AAbN27EarXSokUL5s2bx9atW+nduzc9evTgpZdeIi4ujpMnT5Kamsqzzz7L008/zenTp9mzZw9Go5H77ruP0aNHo1QqKS0tZf369Zw5c4Y1a9YwevRo9u7dS/v27a+Ip6CggP3799O1a1eWL1+O1Wrl4sWLREdHs3LlSjIzM1m2bBnV1dUUFxfz1FNPcc899zSLRz+NTVzuNoBWrVoxceJE5s6dy+zZs8nMzKSkpITs7OyrrmOz2Zg4cSIPPvgg7777LmVlZaxZs4Zhw4axdu1a8vLy+Pjjj7l48SLl5eVIkkR2djYmk4mHHnqINm3aMG/ePIKDg9m8eTNTp07lkUceYePGjeTl5QHg7+/Pgw8+SHx8PE888QReXl5kZGTUe5lcXV3NhQsXsFgsZGVlERISwqJFi0hNTSUjI4MPP/yQpKQknnvuOdRqNcnJySJBG4hI0gag0WiYNGkSu3btoqamhkWLFtWpilaf6Ohobr31Vjp06IDVaqWgoACr1cqtt95KVFQUKSkpXLhw4YrGJZlMhr+/v7M2aGFhobO26QcffEBMTIwzeeRyOf7+/mg0GgIDA//yy+BKpZKBAwfStm1boqKiKCsrw8vLiy+//JJdu3YRGhpKcHDwtR0s4U+Jy90GUFpaSk5ODuHh4fTs2ZOPP/74T1tJa9dwkclk+Pr6YrPZSEtLQ6/Xk5aWRkpKCiaTiYyMDC5dusSvv/7KzTffDPx+f1hcXIyPjw8hISE8/PDDxMTEYDabCQ0N/Z+/kyMuR2IXFhYSGRmJXq9n1qxZ4sXyBiSStAFcunSJ2bNn4+XlRWVlJbNnz6aiogIvLy/kcjl6vR65XI6XlxcajQaFQuFsLJLL5eh0OgICArj//vtZvXo1er2e4OBg7r77blJTU3nhhRf46quvMBqNqNVqNBoNrVq1YuHChTzzzDMMGTKEVatWERAQQGxsLE8//bSzYpljX7U/KxQKdDodCoUCLy8v1Gq1c3QHuVyOt7e3s6uh4zPAhQsX0Gg0LF26lGeeeUa8v9pAPL7v7vWsqvZXOTr1l5eX4+fnh4+PD1arFavVipeXl7OV1GQyIZfLUSqV1NTUoNfrsdlsdT5XVlZiNBrx9/dHq9Vit9spKytzFvFVq9Wo1Wqqq6uprKx0XnaWl5djNBoJDAzEy8vLmTxWq9W5fbvdTnV1NTqdjurqanx8fDAYDCiVShQKBQaDwTnPy8sLhUJBVVUVMpmM+++/n2HDhtGjRw8WLlzIwIEDmThxYqMmqaiqJlwzuVyOn58ffn5+zmkKhcJ5SegoO++oml17mlKprPM5ICCgzrYVCgVBQUFX7NPHx8d5hgSueo9Ye/sKhcL52fHv2q+46fX6Ov92fLbb7YwfP55du3bx3XffER8fz5133inOog1EJKnwtzmGbLnvvvsAUcqwoYkkFa6ZSM7GIR7BCIKb8/gzqVwu58CBA87ub4LnyMrKcnUIjcLjW3eb0/ApzY0HDp9S7xfx+CQVhCZEjGAvCE2RSFJBcHMiSQXBzYkkFQQ3J5JUENycSFJBcHMiSQXBzYkkFQQ3J5JUENycSFJBcHN/1sHeYzpFCkJTJc6kguDmRJIKgpsTSSoIbk4kqSC4OZGkguDmRJIKgpv7fyxy9ae67L1FAAAAAElFTkSuQmCC;" vertex="1" parent="1">
          <mxGeometry x="321.58" y="520" width="209.85" height="272" as="geometry" />
        </mxCell>
        <mxCell id="ezLJfWQwnkQ7zo3uzc4h-4" value="" style="endArrow=classic;html=1;exitX=0.5;exitY=1;exitDx=0;exitDy=0;" edge="1" parent="1" source="4ec97bd9e5d20128-7" target="ezLJfWQwnkQ7zo3uzc4h-3">
          <mxGeometry width="50" height="50" relative="1" as="geometry">
            <mxPoint x="440" y="570" as="sourcePoint" />
            <mxPoint x="490" y="520" as="targetPoint" />
          </mxGeometry>
        </mxCell>
        <mxCell id="ezLJfWQwnkQ7zo3uzc4h-5" value="Here we could stride de image for possible segments, but it has higher cost" style="rounded=0;whiteSpace=wrap;html=1;" vertex="1" parent="1">
          <mxGeometry x="568" y="180" width="170" height="100" as="geometry" />
        </mxCell>
        <mxCell id="ezLJfWQwnkQ7zo3uzc4h-6" value="" style="endArrow=classic;html=1;exitX=0.5;exitY=0;exitDx=0;exitDy=0;entryX=0.5;entryY=1;entryDx=0;entryDy=0;" edge="1" parent="1" source="4ec97bd9e5d20128-6" target="ezLJfWQwnkQ7zo3uzc4h-5">
          <mxGeometry width="50" height="50" relative="1" as="geometry">
            <mxPoint x="440" y="480" as="sourcePoint" />
            <mxPoint x="490" y="430" as="targetPoint" />
          </mxGeometry>
        </mxCell>
        <mxCell id="ezLJfWQwnkQ7zo3uzc4h-7" value="" style="ellipse;whiteSpace=wrap;html=1;fillColor=#61BAFF;fontSize=28;fontColor=#004D99;strokeWidth=3;strokeColor=#004D99;" vertex="1" parent="1">
          <mxGeometry x="1100" y="395" width="20" height="20" as="geometry" />
        </mxCell>
        <mxCell id="ezLJfWQwnkQ7zo3uzc4h-8" value="&lt;span&gt;Stage 5&lt;/span&gt;" style="shape=offPageConnector;whiteSpace=wrap;html=1;fillColor=#0075E8;fontSize=15;fontColor=#FFFFFF;size=0.5093750000000015;verticalAlign=top;strokeColor=none;" vertex="1" parent="1">
          <mxGeometry x="1030" y="340" width="160" height="40" as="geometry" />
        </mxCell>
        <mxCell id="ezLJfWQwnkQ7zo3uzc4h-10" value="&lt;span&gt;Stage 5&lt;/span&gt;" style="shape=offPageConnector;whiteSpace=wrap;html=1;fillColor=#0075E8;fontSize=15;fontColor=#FFFFFF;size=0.4178571428571445;flipV=1;verticalAlign=bottom;strokeColor=none;spacingBottom=4;" vertex="1" parent="1">
          <mxGeometry x="1257" y="425" width="160" height="35" as="geometry" />
        </mxCell>
        <mxCell id="ezLJfWQwnkQ7zo3uzc4h-11" value="" style="ellipse;whiteSpace=wrap;html=1;fillColor=#61BAFF;fontSize=28;fontColor=#004D99;strokeWidth=3;strokeColor=#004D99;" vertex="1" parent="1">
          <mxGeometry x="1327" y="395" width="20" height="20" as="geometry" />
        </mxCell>
        <mxCell id="ezLJfWQwnkQ7zo3uzc4h-12" value="&lt;h1&gt;Classify&lt;/h1&gt;&lt;p&gt;Classify each selected segment to check if it has or not an stenosis, using a new CNN.&lt;/p&gt;" style="text;html=1;spacing=5;spacingTop=-20;whiteSpace=wrap;overflow=hidden;strokeColor=none;strokeWidth=3;fillColor=#E6E6E6;fontSize=13;fontColor=#000000;align=center;rounded=1;" vertex="1" parent="1">
          <mxGeometry x="1230" y="250" width="215" height="120" as="geometry" />
        </mxCell>
        <mxCell id="ezLJfWQwnkQ7zo3uzc4h-13" value="&lt;h1&gt;Classification result&lt;/h1&gt;&lt;p&gt;Present the classification result.&lt;/p&gt;" style="text;html=1;spacing=5;spacingTop=-20;whiteSpace=wrap;overflow=hidden;strokeColor=none;strokeWidth=3;fillColor=#E6E6E6;fontSize=13;fontColor=#000000;align=center;rounded=1;" vertex="1" parent="1">
          <mxGeometry x="1470" y="430" width="215" height="120" as="geometry" />
        </mxCell>
        <mxCell id="ezLJfWQwnkQ7zo3uzc4h-14" value="" style="ellipse;whiteSpace=wrap;html=1;fillColor=#61BAFF;fontSize=28;fontColor=#004D99;strokeWidth=3;strokeColor=#004D99;" vertex="1" parent="1">
          <mxGeometry x="1567.5" y="395" width="20" height="20" as="geometry" />
        </mxCell>
        <mxCell id="ezLJfWQwnkQ7zo3uzc4h-15" value="&lt;span&gt;Stage 6&lt;/span&gt;" style="shape=offPageConnector;whiteSpace=wrap;html=1;fillColor=#0075E8;fontSize=15;fontColor=#FFFFFF;size=0.5093750000000015;verticalAlign=top;strokeColor=none;" vertex="1" parent="1">
          <mxGeometry x="1497.5" y="340" width="160" height="40" as="geometry" />
        </mxCell>
      </root>
    </mxGraphModel>
  </diagram>
</mxfile>
